<svg xmlns="http://www.w3.org/2000/svg" fill="none" viewBox="0 0 24 24" id="Jupyter--Streamline-Svg-Logos" height="24" width="24">
  <desc>
    Jupyter Streamline Icon: https://streamlinehq.com
  </desc>
  <path fill="#4e4e4e" d="M2.791575 12.5377V9.964675h0.560625v2.769675c0.02605 0.2232 0.006875 0.449375 -0.056375 0.665025 -0.06325 0.21565 -0.1693 0.416325 -0.3118 0.5901 -0.264825 0.22845 -0.6041725 0.351975 -0.953895 0.34725l-0.0585725 -0.418375c0.2255775 0.000125 0.4432 -0.08335 0.6108425 -0.234275 0.1506 -0.175725 0.209175 -0.4142 0.209175 -1.146375Zm4.181 -0.33c0 0.313775 0 0.5941 0.0251 0.83675h-0.49785l-0.033475 -0.49785c-0.10415 0.17615 -0.253075 0.3216 -0.431625 0.421525 -0.178575 0.09995 -0.380425 0.150825 -0.58505 0.14745 -0.4853 0 -1.062675 -0.263575 -1.062675 -1.3388v-1.786475h0.560625v1.6735c0 0.58155 0.1799 0.97065 0.68615 0.97065 0.10415 0.001125 0.207475 -0.018575 0.303925 -0.0579 0.096425 -0.03935 0.18405 -0.09755 0.2577 -0.1712s0.13185 -0.161275 0.1712 -0.257725c0.039325 -0.096425 0.059025 -0.19975 0.0579 -0.3039v-1.87435h0.560625v2.2216l-0.01255 0.016725Zm1.0627 -1.222025c0 -0.3891 0 -0.707075 -0.0251 -0.99575h0.50205l0.0251 0.522975c0.11185 -0.18895 0.2729 -0.344 0.465925 -0.448625 0.19305 -0.104625 0.410875 -0.1549 0.630225 -0.145475 0.744725 0 1.30535 0.6234 1.30535 1.5522 0 1.09615 -0.6736 1.640025 -1.401575 1.640025 -0.186325 0.008325 -0.371625 -0.0316 -0.538025 -0.115875 -0.166375 -0.0843 -0.308175 -0.2101 -0.4117 -0.36525v1.6735h-0.55225V10.985675Zm0.55225 0.815825c0.001525 0.075925 0.009925 0.15155 0.025125 0.225925 0.04745 0.185775 0.155525 0.350425 0.307075 0.467875s0.337925 0.181 0.529675 0.180625c0.5899 0 0.937175 -0.48115 0.937175 -1.179825 0 -0.61085 -0.32635 -1.1338 -0.91625 -1.1338 -0.23345 0.0191 -0.451925 0.122725 -0.61445 0.2914 -0.1625 0.168675 -0.257925 0.390825 -0.26835 0.624825v0.522975Zm3.350175 -1.81435 0.673575 1.8032c0.071125 0.200825 0.146425 0.443475 0.19665 0.6234 0.058575 -0.1841 0.121325 -0.4184 0.196625 -0.63595l0.61085 -1.79065h0.5899l-0.83675 2.17555c-0.418375 1.04595 -0.6736 1.585675 -1.0585 1.912 -0.193875 0.177075 -0.430225 0.301025 -0.68615 0.3598l-0.13805 -0.468575c0.178925 -0.0588 0.34505 -0.151075 0.4895 -0.27195 0.2041 -0.166325 0.366075 -0.378475 0.47275 -0.6192 0.02285 -0.041675 0.0384 -0.08695 0.046025 -0.133875 -0.00475 -0.0505 -0.01745 -0.0999 -0.03765 -0.146425L11.3185 9.978775h0.610825l0.008375 0.008375Zm3.7559 -0.87775v0.8786h0.8033v0.418375h-0.8033v1.648425c0 0.376525 0.1088 0.594075 0.4184 0.594075 0.10995 0.0018 0.219675 -0.01085 0.326325 -0.03765l0.0251 0.418375c-0.159925 0.055425 -0.3287 0.08095 -0.497875 0.075325 -0.112025 0.007 -0.22425 -0.0103 -0.328975 -0.05075 -0.1047 -0.040425 -0.199425 -0.10305 -0.277675 -0.18355 -0.1704 -0.227925 -0.24815 -0.511975 -0.21755 -0.794925v-1.6735h-0.47695v-0.418375h0.485325v-0.744725l0.543875 -0.1297Zm1.83605 2.504275c-0.01135 0.141875 0.008225 0.28455 0.0574 0.418125 0.0492 0.133575 0.126775 0.254875 0.227425 0.355525 0.10065 0.10065 0.221975 0.17825 0.35555 0.227425 0.133575 0.049175 0.276225 0.068775 0.418125 0.057425 0.287 0.0064 0.572125 -0.047775 0.83675 -0.159l0.096225 0.418375c-0.32475 0.133775 -0.673925 0.197925 -1.025025 0.188275 -0.204675 0.014025 -0.40995 -0.0164 -0.60175 -0.089175 -0.191825 -0.072775 -0.365625 -0.1862 -0.509475 -0.332425 -0.143875 -0.146275 -0.2544 -0.3219 -0.324025 -0.514875 -0.0696 -0.193 -0.09665 -0.39875 -0.079275 -0.60315 0 -0.920425 0.548075 -1.648425 1.4434 -1.648425 1.0041 0 1.25515 0.8786 1.25515 1.439225 0.00535 0.0864 0.00535 0.173025 0 0.2594h-2.163025l0.01255 -0.016725Zm1.64005 -0.418375c0.01615 -0.111875 0.008125 -0.225875 -0.023525 -0.334375 -0.031625 -0.1085 -0.086175 -0.20895 -0.1599 -0.294575 -0.07375 -0.08565 -0.165 -0.154475 -0.2676 -0.201875s-0.21415 -0.07225 -0.327175 -0.072875c-0.229875 0.016625 -0.445225 0.118525 -0.6039 0.2857 -0.15865 0.16715 -0.24915 0.38755 -0.253775 0.618h1.635875Zm1.36105 -0.2568c0 -0.3598 0 -0.6694 -0.0251 -0.9539h0.50205v0.5983h0.0251c0.0527 -0.184675 0.161575 -0.348325 0.311525 -0.4683 0.14995 -0.11995 0.333525 -0.19025 0.525225 -0.201125 0.052775 -0.006925 0.106225 -0.006925 0.159 0v0.522975c-0.06395 -0.0074 -0.128525 -0.0074 -0.19245 0 -0.189925 0.007375 -0.370675 0.0836 -0.5085 0.2145 -0.137825 0.130875 -0.223275 0.30745 -0.2404 0.49675 -0.01565 0.0856 -0.02405 0.172375 -0.0251 0.2594v1.627475h-0.552275v-2.091875l0.020925 -0.0042Z" stroke-width="0.25"></path>
  <path fill="#767677" d="M20.285025 1.58256c0.017175 0.28107 -0.0497 0.5608925 -0.192125 0.8038175 -0.1424 0.2429225 -0.3539 0.4379725 -0.60755 0.5602725 -0.25365 0.1223 -0.537975 0.166325 -0.816725 0.126475 -0.27875 -0.03985 -0.53935 -0.161775 -0.74855 -0.35025 -0.209225 -0.188475 -0.3576 -0.4349675 -0.42625 -0.7080675 -0.068625 -0.2731 -0.054425 -0.560455 0.040825 -0.8254475 0.09525 -0.264995 0.267225 -0.49564 0.494025 -0.6625525 0.226775 -0.1669125 0.498125 -0.2625375 0.77945 -0.27469 0.184475 -0.01015 0.3691 0.0162625 0.5433 0.0777225 0.174225 0.0614575 0.33455 0.1567475 0.4718 0.28039 0.13725 0.123645 0.248725 0.2732 0.327975 0.4400675 0.07925 0.1668675 0.124725 0.3477575 0.133825 0.5322625Z" stroke-width="0.25"></path>
  <path fill="#f37726" d="M12.01225 17.9687c-3.765375 0 -7.074775 -1.35135 -8.785925 -3.347025 0.663925 1.795325 1.861925 3.344175 3.43275 4.43805C8.229875 20.1536 10.098125 20.74 12.01225 20.74c1.914175 0 3.782375 -0.5864 5.353225 -1.680275 1.570775 -1.093875 2.768775 -2.642725 3.43275 -4.43805 -1.706975 1.995675 -5.003825 3.347025 -8.785975 3.347025Z" stroke-width="0.25"></path>
  <path fill="#f37726" d="M12.01225 4.991475c3.765425 0 7.074825 1.351375 8.785975 3.347025 -0.663975 -1.795325 -1.861975 -3.34415 -3.43275 -4.438025 -1.57085 -1.093875 -3.43905 -1.68029 -5.353225 -1.68029 -1.914125 0 -3.782375 0.586415 -5.353175 1.68029 -1.570825 1.093875 -2.768825 2.6427 -3.43275 4.438025 1.71115 -1.999825 5.003825 -3.347025 8.785925 -3.347025Z" stroke-width="0.25"></path>
  <path fill="#9e9e9e" d="M6.82875 21.8523c0.0221 0.354025 -0.0617 0.706625 -0.240725 1.01285 -0.179025 0.306225 -0.44515 0.552225 -0.7645 0.70665 -0.319325 0.15445 -0.6774 0.210325 -1.0286 0.160525 -0.3512 -0.049825 -0.679625 -0.20305 -0.943425 -0.440175 -0.263825 -0.237125 -0.45105 -0.547425 -0.537875 -0.89135 -0.086825 -0.343925 -0.0693 -0.7059 0.05035 -1.03985 0.119625 -0.333925 0.335975 -0.624675 0.62145 -0.8352 0.2855 -0.210525 0.627175 -0.331325 0.98155 -0.34695 0.23215 -0.012425 0.46445 0.021025 0.683675 0.0984 0.219225 0.0774 0.42105 0.197225 0.593925 0.352625 0.1729 0.155425 0.313475 0.343375 0.413725 0.553125 0.100225 0.20975 0.15815 0.4372 0.17045 0.66935Z" stroke-width="0.25"></path>
  <path fill="#616262" d="M3.6543 4.536675c-0.202875 0.0056 -0.4029 -0.048925 -0.5749 -0.156675 -0.172 -0.107775 -0.308275 -0.264 -0.391725 -0.449025 -0.08345 -0.185025 -0.110325 -0.3906 -0.077225 -0.59085 0.033075 -0.20025 0.124625 -0.386275 0.263125 -0.534625 0.138525 -0.148375 0.3178 -0.252475 0.515325 -0.2992 0.1975 -0.0467425 0.404425 -0.034035 0.59475 0.036525 0.1903 0.07055 0.355525 0.1958 0.474825 0.36 0.119325 0.164175 0.187425 0.36 0.19575 0.5628 0.00795 0.274225 -0.092625 0.5405 -0.279825 0.741025 -0.187225 0.200525 -0.445975 0.319125 -0.7201 0.330025Z" stroke-width="0.25"></path>
</svg>